<svg width="57" height="24" viewBox="0 0 57 24" xmlns="http://www.w3.org/2000/svg"><path d="M.924 18V.867h3.633V15h6.949v3H.924zm16.125-6.574c0 1.297.213 2.277.639 2.941.425.664 1.119.996 2.08.996.953 0 1.638-.33 2.056-.99.418-.66.627-1.643.627-2.947 0-1.297-.21-2.27-.633-2.918-.422-.649-1.113-.973-2.074-.973-.953 0-1.64.322-2.062.967-.422.644-.633 1.62-.633 2.924zm9.058 0c0 2.133-.562 3.8-1.687 5.004-1.125 1.203-2.691 1.804-4.7 1.804-1.257 0-2.366-.275-3.327-.826-.961-.55-1.7-1.342-2.215-2.373-.516-1.031-.774-2.234-.774-3.61 0-2.14.559-3.804 1.676-4.991 1.117-1.188 2.688-1.782 4.711-1.782 1.258 0 2.367.274 3.328.82.961.548 1.7 1.333 2.215 2.356.516 1.024.773 2.223.773 3.598zm8.38 4.008c.96 0 1.648-.276 2.062-.827.414-.55.62-1.443.62-2.677v-.434c0-1.398-.216-2.404-.65-3.017-.433-.614-1.13-.92-2.091-.92-1.68 0-2.52 1.32-2.52 3.96 0 1.313.21 2.293.627 2.942.418.648 1.069.973 1.951.973zm6.023 2.59c0 1.882-.55 3.31-1.647 4.283-1.097.972-2.732 1.459-4.904 1.459-1.914 0-3.547-.258-4.898-.774v-2.86c1.585.673 3.289 1.009 5.109 1.009 1.836 0 2.754-.993 2.754-2.977v-.258l.105-1.605h-.105c-.836 1.289-2.074 1.933-3.715 1.933-1.57 0-2.787-.605-3.65-1.816-.864-1.211-1.295-2.86-1.295-4.945 0-2.149.447-3.823 1.341-5.022.895-1.2 2.127-1.799 3.698-1.799 1.61 0 2.875.641 3.797 1.922h.093l.293-1.676h3.024v13.125zm6.586-6.598c0 1.297.213 2.277.638 2.941.426.664 1.12.996 2.08.996.954 0 1.64-.33 2.057-.99.418-.66.627-1.643.627-2.947 0-1.297-.21-2.27-.633-2.918-.422-.649-1.113-.973-2.074-.973-.953 0-1.64.322-2.062.967-.422.644-.633 1.62-.633 2.924zm9.058 0c0 2.133-.562 3.8-1.687 5.004-1.125 1.203-2.692 1.804-4.7 1.804-1.257 0-2.367-.275-3.328-.826-.96-.55-1.699-1.342-2.214-2.373-.516-1.031-.774-2.234-.774-3.61 0-2.14.559-3.804 1.676-4.991 1.117-1.188 2.687-1.782 4.71-1.782 1.259 0 2.368.274 3.329.82.961.548 1.7 1.333 2.215 2.356.515 1.024.773 2.223.773 3.598z" fill="#FFF" fill-rule="evenodd"/></svg>